<svg width="400" height="300" viewBox="0 0 400 300" fill="none" xmlns="http://www.w3.org/2000/svg">
  <defs>
    <linearGradient id="aiGradient" x1="0%" y1="0%" x2="100%" y2="100%">
      <stop offset="0%" style="stop-color:#7c3aed;stop-opacity:1" />
      <stop offset="50%" style="stop-color:#a855f7;stop-opacity:1" />
      <stop offset="100%" style="stop-color:#c084fc;stop-opacity:1" />
    </linearGradient>
  </defs>
  
  <!-- Background -->
  <rect width="400" height="300" fill="url(#aiGradient)"/>
  
  <!-- AI Brain -->
  <g fill="white" opacity="0.9">
    <!-- Brain shape -->
    <path d="M 200 80 Q 150 60 120 100 Q 100 140 120 180 Q 150 200 200 190 Q 250 200 280 180 Q 300 140 280 100 Q 250 60 200 80 Z" 
          fill="rgba(255,255,255,0.2)" stroke="white" stroke-width="2"/>
    
    <!-- Neural network nodes -->
    <circle cx="150" cy="120" r="8" fill="white"/>
    <circle cx="200" cy="100" r="10" fill="white"/>
    <circle cx="250" cy="120" r="8" fill="white"/>
    <circle cx="180" cy="150" r="8" fill="white"/>
    <circle cx="220" cy="150" r="8" fill="white"/>
    <circle cx="200" cy="170" r="8" fill="white"/>
    
    <!-- Neural connections -->
    <line x1="150" y1="120" x2="200" y2="100" stroke="white" stroke-width="2" opacity="0.6"/>
    <line x1="200" y1="100" x2="250" y2="120" stroke="white" stroke-width="2" opacity="0.6"/>
    <line x1="150" y1="120" x2="180" y2="150" stroke="white" stroke-width="2" opacity="0.6"/>
    <line x1="250" y1="120" x2="220" y2="150" stroke="white" stroke-width="2" opacity="0.6"/>
    <line x1="180" y1="150" x2="200" y2="170" stroke="white" stroke-width="2" opacity="0.6"/>
    <line x1="220" y1="150" x2="200" y2="170" stroke="white" stroke-width="2" opacity="0.6"/>
  </g>
  
  <!-- AI Elements -->
  <g fill="white" opacity="0.8">
    <!-- Robot icon -->
    <rect x="80" y="200" width="40" height="50" rx="8" fill="rgba(255,255,255,0.3)" stroke="white" stroke-width="2"/>
    <circle cx="90" cy="215" r="4" fill="white"/>
    <circle cx="110" cy="215" r="4" fill="white"/>
    <rect x="95" y="230" width="10" height="4" rx="2" fill="white"/>
    
    <!-- Data processing -->
    <rect x="150" y="200" width="60" height="40" rx="4" fill="rgba(255,255,255,0.3)" stroke="white" stroke-width="2"/>
    <rect x="160" y="210" width="40" height="3" rx="1" fill="white"/>
    <rect x="160" y="220" width="30" height="3" rx="1" fill="white"/>
    <rect x="160" y="230" width="35" height="3" rx="1" fill="white"/>
    
    <!-- Machine learning -->
    <circle cx="280" cy="220" r="20" fill="rgba(255,255,255,0.3)" stroke="white" stroke-width="2"/>
    <path d="M 270 220 Q 280 210 290 220 Q 280 230 270 220" fill="white"/>
  </g>
  
  <!-- AI Text -->
  <g fill="white" opacity="0.9">
    <text x="50" y="50" fill="white" font-family="sans-serif" font-size="20" font-weight="bold">الذكاء الاصطناعي</text>
    <text x="50" y="70" fill="white" font-family="sans-serif" font-size="12">Artificial Intelligence</text>
    
    <text x="300" y="50" fill="white" font-family="sans-serif" font-size="14">🤖 AI</text>
    <text x="300" y="70" fill="white" font-family="sans-serif" font-size="14">🧠 ML</text>
    <text x="300" y="90" fill="white" font-family="sans-serif" font-size="14">⚡ Deep Learning</text>
  </g>
</svg>
