<svg width="400" height="300" viewBox="0 0 400 300" fill="none" xmlns="http://www.w3.org/2000/svg">
  <defs>
    <linearGradient id="devGradient" x1="0%" y1="0%" x2="100%" y2="100%">
      <stop offset="0%" style="stop-color:#1e40af;stop-opacity:1" />
      <stop offset="50%" style="stop-color:#3b82f6;stop-opacity:1" />
      <stop offset="100%" style="stop-color:#60a5fa;stop-opacity:1" />
    </linearGradient>
  </defs>
  
  <!-- Background -->
  <rect width="400" height="300" fill="url(#devGradient)"/>
  
  <!-- Code brackets -->
  <g fill="white" opacity="0.9">
    <path d="M80 100 L60 120 L80 140 L90 130 L75 120 L90 110 Z"/>
    <path d="M320 100 L340 120 L320 140 L310 130 L325 120 L310 110 Z"/>
  </g>
  
  <!-- Code lines -->
  <g fill="white" opacity="0.7">
    <rect x="120" y="90" width="80" height="4" rx="2"/>
    <rect x="120" y="110" width="60" height="4" rx="2"/>
    <rect x="120" y="130" width="100" height="4" rx="2"/>
    <rect x="120" y="150" width="70" height="4" rx="2"/>
  </g>
  
  <!-- Terminal window -->
  <rect x="50" y="180" width="300" height="80" rx="8" fill="rgba(0,0,0,0.3)" stroke="white" stroke-width="2"/>
  <circle cx="70" cy="200" r="6" fill="#ff5f56"/>
  <circle cx="90" cy="200" r="6" fill="#ffbd2e"/>
  <circle cx="110" cy="200" r="6" fill="#27ca3f"/>
  
  <!-- Terminal text -->
  <text x="130" y="210" fill="white" font-family="monospace" font-size="12">npm run dev</text>
  <text x="130" y="230" fill="#4ade80" font-family="monospace" font-size="12">✓ Server running on port 3000</text>
  <text x="130" y="250" fill="white" font-family="monospace" font-size="12">> Ready for development</text>
</svg>
