<?xml version="1.0" encoding="UTF-8"?>
<svg version="1.1" xmlns="http://www.w3.org/2000/svg" width="372" height="191">
<path d="M0 0 C122.76 0 245.52 0 372 0 C372 63.03 372 126.06 372 191 C249.24 191 126.48 191 0 191 C0 127.97 0 64.94 0 0 Z " fill="transparent" transform="translate(0,0)"/>
<path d="M0 0 C8.98866155 -0.06969384 17.97722922 -0.12290926 26.9661026 -0.15543652 C31.14058518 -0.17105268 35.31488207 -0.19221633 39.48925781 -0.22631836 C43.52227082 -0.25905713 47.55510588 -0.27688343 51.58824158 -0.28463173 C53.12233783 -0.29014931 54.65642501 -0.30092355 56.19044495 -0.31719017 C73.80138556 -0.49640715 73.80138556 -0.49640715 80.2421875 4.8671875 C84.94018373 10.64414937 87.56938662 14.92082761 87.37890625 22.52734375 C86.477262 28.4112696 83.52605279 33.9775324 79.125 38 C72.33949027 42.34272623 65.88613256 42.26295279 58.0625 42.125 C54.741875 42.08375 51.42125 42.0425 48 42 C48 31.44 48 20.88 48 10 C42.39 10 36.78 10 31 10 C31 33.1 31 56.2 31 80 C22.65508194 76.66203278 15.04682796 72.69129131 10 65 C8.99877829 61.99633486 8.87887989 60.02260407 8.88647461 56.88598633 C8.88655014 55.84513382 8.88662567 54.80428131 8.88670349 53.73188782 C8.89186478 52.60993515 8.89702606 51.48798248 8.90234375 50.33203125 C8.9037587 49.18208176 8.90517365 48.03213226 8.90663147 46.84733582 C8.91223571 43.16903092 8.92478896 39.49078655 8.9375 35.8125 C8.94251445 33.32096442 8.94707745 30.82942789 8.95117188 28.33789062 C8.96220653 22.22523971 8.97894882 16.11262418 9 10 C8.37061523 9.69964844 7.74123047 9.39929688 7.09277344 9.08984375 C3.79449422 7.37221444 2.22158383 4.96211177 0 2 C0 1.34 0 0.68 0 0 Z " fill="#45718E" transform="translate(30,72)"/>
<path d="M0 0 C3.1507189 1.59968933 6.13941105 3.34673943 9.14453125 5.20507812 C10.22210693 5.84195557 11.29968262 6.47883301 12.40991211 7.13500977 C14.57348802 8.41639465 16.73050424 9.70892884 18.88037109 11.01318359 C21.56749913 12.63294764 24.27440307 14.20033918 27.0078125 15.74023438 C46.077887 26.52056069 46.077887 26.52056069 48.89453125 34.83007812 C49.15522766 37.55491638 49.15522766 37.55491638 49.16918945 40.53491211 C49.17872147 41.65635117 49.18825348 42.77779022 49.19807434 43.93321228 C49.19716293 45.13538895 49.19625153 46.33756561 49.1953125 47.57617188 C49.19959763 48.82004166 49.20388275 50.06391144 49.20829773 51.34547424 C49.21550363 54.64594665 49.2124217 57.94623629 49.20672607 61.2467041 C49.20703075 63.2642743 49.21706859 65.2815509 49.23071289 67.29907227 C49.25521646 71.18324534 49.25936799 75.06693112 49.2578125 78.95117188 C49.26702225 80.15132431 49.27623199 81.35147675 49.28572083 82.58799744 C49.24693186 89.59123944 48.90074536 94.5399095 43.9921875 99.91210938 C43.32058594 100.48316406 42.64898437 101.05421875 41.95703125 101.64257812 C41.28800781 102.22652344 40.61898437 102.81046875 39.9296875 103.41210938 C37.87223562 104.84561232 36.34542016 105.40788921 33.89453125 105.83007812 C33.25837891 104.56164062 33.25837891 104.56164062 32.609375 103.26757812 C27.50627729 93.39785069 22.28966477 85.96567553 12.89453125 79.83007812 C13.47460938 79.08564453 13.47460938 79.08564453 14.06640625 78.32617188 C22.74879546 67.00038199 26.07561963 57.33204935 24.89453125 42.83007812 C23.06087968 34.11199819 18.68574339 26.45521711 11.53515625 21.04492188 C9.01614356 19.45293715 6.60671411 18.06971849 3.89453125 16.83007812 C3.33096924 16.56445068 2.76740723 16.29882324 2.18676758 16.02514648 C-5.71848353 12.82300733 -14.27607387 13.2633936 -22.66796875 13.14257812 C-24.26500105 13.10935052 -25.86200752 13.07485596 -27.45898438 13.0390625 C-31.34100199 12.95478319 -35.22296747 12.88768389 -39.10546875 12.83007812 C-34.79370752 9.30924274 -30.40106058 6.38566246 -25.60546875 3.58007812 C-24.8784375 3.12117188 -24.15140625 2.66226563 -23.40234375 2.18945312 C-15.95562639 -2.12450728 -8.15286793 -3.07142635 0 0 Z " fill="#07CDC2" transform="translate(107.10546875,42.169921875)"/>
<path d="M0 0 C2.805 -0.04125 5.61 -0.0825 8.5 -0.125 C9.36689453 -0.14320801 10.23378906 -0.16141602 11.12695312 -0.18017578 C21.68161406 -0.25433591 31.80671236 2.87321097 39.75 10.0625 C47.18762726 18.25978991 49.70881072 26.40616407 49.2109375 37.359375 C49.14132813 38.23078125 49.07171875 39.1021875 49 40 C48.40832031 39.55527344 47.81664062 39.11054688 47.20703125 38.65234375 C46.41683594 38.08644531 45.62664062 37.52054688 44.8125 36.9375 C44.03519531 36.36902344 43.25789063 35.80054688 42.45703125 35.21484375 C40.07416482 33.78329026 40.07416482 33.78329026 37.44921875 34.15625 C34.95567549 35.01526969 33.16794533 36.07627185 31 37.5625 C24.7824217 41.0727553 20.09086763 40.78787418 13 40 C8.71 37.69 4.42 35.38 0 33 C0 22.11 0 11.22 0 0 Z " fill="#447392" transform="translate(78,130)"/>
<path d="M0 0 C0.99 0 1.98 0 3 0 C3 13.53 3 27.06 3 41 C8.59582031 40.96519531 8.59582031 40.96519531 14.3046875 40.9296875 C17.90543274 40.91410389 21.50617426 40.90195178 25.10693359 40.89013672 C27.61541415 40.88005989 30.12388292 40.86639821 32.63232422 40.84912109 C36.23147488 40.82494663 39.83047067 40.81353388 43.4296875 40.8046875 C44.55680145 40.79436493 45.68391541 40.78404236 46.84518433 40.77340698 C47.88611237 40.77325592 48.92704041 40.77310486 49.99951172 40.77294922 C50.91884491 40.768508 51.8381781 40.76406677 52.78536987 40.75949097 C55 41 55 41 57 43 C57.1953125 45.6015625 57.1953125 45.6015625 57.125 48.625 C57.10695313 49.62789062 57.08890625 50.63078125 57.0703125 51.6640625 C57.04710937 52.43492188 57.02390625 53.20578125 57 54 C61.81122847 52.47444034 61.81122847 52.47444034 65 49 C65.50837553 43.82457047 65.83827129 39.44529532 63.1875 34.875 C59.703186 31.88844515 56.66994634 31.84106408 52.23828125 31.68359375 C50.56088867 31.62075195 50.56088867 31.62075195 48.84960938 31.55664062 C47.68236328 31.51732422 46.51511719 31.47800781 45.3125 31.4375 C44.13365234 31.39431641 42.95480469 31.35113281 41.74023438 31.30664062 C38.82694117 31.20048824 35.91356243 31.09843758 33 31 C33.6208622 27.31702134 34.06674982 25.42311971 37 23 C37.33 23.33 37.66 23.66 38 24 C39.40544511 24.12057338 40.81630503 24.17950874 42.2265625 24.2109375 C43.09410156 24.23929688 43.96164062 24.26765625 44.85546875 24.296875 C46.67819785 24.3482919 48.50113873 24.392751 50.32421875 24.4296875 C56.56270789 24.65019374 61.74743026 25.27587981 66.70703125 29.4296875 C71.38165971 35.54139256 72.84929078 40.3833446 72 48 C70.17465409 53.27322153 67.39280797 55.79691086 63 59 C60.11788698 59.96070434 58.30149956 60.10581883 55.3125 60.0625 C53.1778125 60.0315625 53.1778125 60.0315625 51 60 C51 55.71 51 51.42 51 47 C33.18 47 15.36 47 -3 47 C-3 35.78 -3 24.56 -3 13 C-3.99 12.67 -4.98 12.34 -6 12 C-6.3125 9.75 -6.3125 9.75 -6 7 C-3.5625 4.875 -3.5625 4.875 -1 3 C-0.67 2.01 -0.34 1.02 0 0 Z " fill="#4B6E85" transform="translate(261,60)"/>
<path d="M0 0 C0 7.92 0 15.84 0 24 C-8.11056037 24.06788391 -16.2208984 24.12287807 -24.33166695 24.15543652 C-28.09817214 24.17106606 -31.86447221 24.19225424 -35.63085938 24.22631836 C-39.26835002 24.25900935 -42.90564385 24.2768734 -46.54327011 24.28463173 C-47.92830374 24.29015785 -49.31332709 24.30094905 -50.69827652 24.31719017 C-52.64395821 24.33909128 -54.58983961 24.34022648 -56.53564453 24.34057617 C-57.64150909 24.34723801 -58.74737366 24.35389984 -59.88674927 24.36076355 C-64.71312368 23.8014832 -68.7667641 21.9027757 -71.8125 18.0625 C-73.6455841 15.49618226 -74.64639393 14.06458598 -75 11 C-73.02 10.34 -71.04 9.68 -69 9 C-68.566875 9.94875 -68.13375 10.8975 -67.6875 11.875 C-66.20697799 15.20041937 -66.20697799 15.20041937 -63 17 C-60.39356398 17.3285708 -60.39356398 17.3285708 -57.42700195 17.31884766 C-56.28604568 17.33871735 -55.14508942 17.35858704 -53.96955872 17.37905884 C-52.12257637 17.39638565 -52.12257637 17.39638565 -50.23828125 17.4140625 C-48.97735153 17.43342865 -47.71642181 17.4527948 -46.4172821 17.4727478 C-43.06852419 17.52243737 -39.71987681 17.56369435 -36.37097168 17.60089111 C-32.95229144 17.64093081 -29.53377839 17.69202326 -26.11523438 17.7421875 C-19.41025447 17.83832574 -12.70521824 17.92232972 -6 18 C-6.495 10.575 -6.495 10.575 -7 3 C-1 0 -1 0 0 0 Z " fill="#476A82" transform="translate(250,83)"/>
<path d="M0 0 C13.47007199 -0.37073593 13.47007199 -0.37073593 15.9375 1.35546875 C17.41734138 3.64595853 17.20093975 5.32080328 17 8 C17 10.62113708 17.31292445 12.50935112 18 15 C15.44725126 17.45605371 14.14109357 17.98802939 10.546875 18.29296875 C7.03125 18.1953125 3.515625 18.09765625 0 18 C0 12.06 0 6.12 0 0 Z " fill="#839DAE" transform="translate(336,127)"/>
<path d="M0 0 C0.10845027 3.04263267 0.18752063 6.08136204 0.25 9.125 C0.30027344 10.40890625 0.30027344 10.40890625 0.3515625 11.71875 C0.43765755 17.31492825 -0.11932418 20.6444163 -4 25 C-7.19240415 27.29370214 -10.38827618 27.37314845 -14.25 27.625 C-15.32765625 27.69976562 -16.4053125 27.77453125 -17.515625 27.8515625 C-18.33546875 27.90054688 -19.1553125 27.94953125 -20 28 C-21.4606285 25.35261084 -22 24.10551666 -22 21 C-21.08476562 20.96261719 -20.16953125 20.92523438 -19.2265625 20.88671875 C-18.03804688 20.82097656 -16.84953125 20.75523438 -15.625 20.6875 C-14.44164062 20.62949219 -13.25828125 20.57148437 -12.0390625 20.51171875 C-11.03617187 20.34285156 -10.03328125 20.17398438 -9 20 C-6.08348335 15.62522503 -6.70661599 11.41164202 -6.63671875 6.25 C-6 3 -6 3 -3.51953125 1.0625 C-1 0 -1 0 0 0 Z " fill="#507186" transform="translate(360,94)"/>
<path d="M0 0 C11.71428571 -0.42857143 11.71428571 -0.42857143 17 3 C17 5.66666667 17 8.33333333 17 11 C17.31669821 13.33564933 17.64820803 15.6693782 18 18 C16.68 18 15.36 18 14 18 C13.67 16.02 13.34 14.04 13 12 C10.03 11.67 7.06 11.34 4 11 C4 13.31 4 15.62 4 18 C2.68 18 1.36 18 0 18 C0 12.06 0 6.12 0 0 Z " fill="#6B8394" transform="translate(184,127)"/>
<path d="M0 0 C5.28 0 10.56 0 16 0 C16 0.99 16 1.98 16 3 C11.71 3 7.42 3 3 3 C3 4.65 3 6.3 3 8 C6.3 8 9.6 8 13 8 C13 8.99 13 9.98 13 11 C10.03 11 7.06 11 4 11 C4 12.32 4 13.64 4 15 C7.96 15 11.92 15 16 15 C16 15.99 16 16.98 16 18 C10.72 18 5.44 18 0 18 C0 12.06 0 6.12 0 0 Z " fill="#5A768A" transform="translate(222,127)"/>
<path d="M0 0 C0.99 0 1.98 0 3 0 C4.50519387 2.62214328 6.00431319 5.24744208 7.5 7.875 C7.92925781 8.62136719 8.35851562 9.36773437 8.80078125 10.13671875 C9.40986328 11.20986328 9.40986328 11.20986328 10.03125 12.3046875 C10.40830078 12.96452637 10.78535156 13.62436523 11.17382812 14.30419922 C12 16 12 16 12 18 C10.0625 17.625 10.0625 17.625 8 17 C7.67 16.34 7.34 15.68 7 15 C5.20906809 14.91913853 3.41710372 14.86087298 1.625 14.8125 C0.62726563 14.77769531 -0.37046875 14.74289063 -1.3984375 14.70703125 C-2.68621094 14.85205078 -2.68621094 14.85205078 -4 15 C-4.99 16.485 -4.99 16.485 -6 18 C-6.99 18 -7.98 18 -9 18 C-7.45614871 13.85967154 -5.48971062 10.06446947 -3.375 6.1875 C-3.05015625 5.59001953 -2.7253125 4.99253906 -2.390625 4.37695312 C-1.59620849 2.91662865 -0.79844624 1.45812509 0 0 Z " fill="#5E798B" transform="translate(305,127)"/>
<path d="M0 0 C4.34933608 1.79090309 5.48052986 3.9134912 7.25 8.13671875 C8.69867448 13.66733537 8.2902506 19.33205082 8 25 C6.50923171 24.12360894 5.03266131 23.22303672 3.5625 22.3125 C2.73878906 21.81363281 1.91507812 21.31476563 1.06640625 20.80078125 C-1 19 -1 19 -1.84375 16.4375 C-2.02257805 13.64778241 -1.47196242 12.33782267 0 10 C0.66 10 1.32 10 2 10 C1.34 9.01 0.68 8.02 0 7 C-0.07905064 4.66800612 -0.08798769 2.33167378 0 0 Z " fill="#476B83" transform="translate(119,145)"/>
<path d="M0 0 C1.32 0 2.64 0 4 0 C4 5.94 4 11.88 4 18 C2.68 18 1.36 18 0 18 C0 15.36 0 12.72 0 10 C-3.96 10 -7.92 10 -12 10 C-12 12.64 -12 15.28 -12 18 C-12.99 18 -13.98 18 -15 18 C-15 12.39 -15 6.78 -15 1 C-14.01 1 -13.02 1 -12 1 C-12 3.31 -12 5.62 -12 8 C-8.04 8 -4.08 8 0 8 C0 5.36 0 2.72 0 0 Z " fill="#698293" transform="translate(273,127)"/>
<path d="M0 0 C0.433125 0.94875 0.86625 1.8975 1.3125 2.875 C2.79302201 6.20041937 2.79302201 6.20041937 6 8 C8.60643602 8.3285708 8.60643602 8.3285708 11.57299805 8.31884766 C12.71395432 8.33871735 13.85491058 8.35858704 15.03044128 8.37905884 C16.87742363 8.39638565 16.87742363 8.39638565 18.76171875 8.4140625 C20.02264847 8.43342865 21.28357819 8.4527948 22.5827179 8.4727478 C25.93147581 8.52243737 29.28012319 8.56369435 32.62902832 8.60089111 C36.04770856 8.64093081 39.46622161 8.69202326 42.88476562 8.7421875 C49.58973631 8.83832561 56.29477974 8.92335146 63 9 C63 9.33 63 9.66 63 10 C44.85 10 26.7 10 8 10 C7.67 10.99 7.34 11.98 7 13 C5.1640625 13.84765625 5.1640625 13.84765625 3 14 C-1.07017645 11.79317437 -3.64057631 8.84386433 -5.4375 4.625 C-5.623125 3.75875 -5.80875 2.8925 -6 2 C-2.25 0 -2.25 0 0 0 Z " fill="#5C7A90" transform="translate(181,92)"/>
<path d="M0 0 C2.29141286 -0.05384521 4.58318188 -0.09272087 6.875 -0.125 C8.78925781 -0.15980469 8.78925781 -0.15980469 10.7421875 -0.1953125 C14 0 14 0 16 2 C16.125 4.4375 16.125 4.4375 16 7 C16 9.62113708 16.31292445 11.50935112 17 14 C14.51565563 16.34290892 13.22268407 16.97982934 9.765625 17.29296875 C8.60546875 17.25816406 7.4453125 17.22335938 6.25 17.1875 C5.07953125 17.16042969 3.9090625 17.13335937 2.703125 17.10546875 C1.81109375 17.07066406 0.9190625 17.03585938 0 17 C0 15.35 0 13.7 0 12 C0.66 12 1.32 12 2 12 C2 12.66 2 13.32 2 14 C5.63 14 9.26 14 13 14 C13 12.68 13 11.36 13 10 C9.7 9.67 6.4 9.34 3 9 C3 8.67 3 8.34 3 8 C5.97 7.34 8.94 6.68 12 6 C12 5.01 12 4.02 12 3 C8.7 2.67 5.4 2.34 2 2 C2 3.65 2 5.3 2 7 C1.34 7 0.68 7 0 7 C0 4.69 0 2.38 0 0 Z " fill="#577486" transform="translate(337,128)"/>
<path d="M0 0 C0.66 0.33 1.32 0.66 2 1 C3.3734635 1.15004973 4.7528526 1.24838006 6.1328125 1.31640625 C6.93847656 1.35830078 7.74414062 1.40019531 8.57421875 1.44335938 C9.41597656 1.48267578 10.25773437 1.52199219 11.125 1.5625 C12.39923828 1.62727539 12.39923828 1.62727539 13.69921875 1.69335938 C15.79928223 1.79954236 17.89961948 1.90028497 20 2 C19.34 3.32 18.68 4.64 18 6 C18.99 6.66 19.98 7.32 21 8 C13.08 8 5.16 8 -3 8 C-2 3 -2 3 0 0 Z " fill="#57788D" transform="translate(297,83)"/>
<path d="M0 0 C8.34311084 -0.96266664 15.28657742 2.38408954 21.87890625 7.44140625 C23.25 8.75 23.25 8.75 25 11 C25 11.66 25 12.32 25 13 C18.29787234 11.06382979 18.29787234 11.06382979 16 8 C16 7.34 16 6.68 16 6 C13.54254422 5.24385976 11.72215712 5.01208013 9.125 5.125 C5.42467131 4.97698685 3.18516219 3.82009268 0 2 C0 1.34 0 0.68 0 0 Z " fill="#4B6C82" transform="translate(94,131)"/>
<path d="M0 0 C0.99 0 1.98 0 3 0 C4.50519387 2.62214328 6.00431319 5.24744208 7.5 7.875 C7.92925781 8.62136719 8.35851562 9.36773437 8.80078125 10.13671875 C9.20683594 10.85214844 9.61289062 11.56757813 10.03125 12.3046875 C10.40830078 12.96452637 10.78535156 13.62436523 11.17382812 14.30419922 C12 16 12 16 12 18 C10.68 17.67 9.36 17.34 8 17 C7.67 15.68 7.34 14.36 7 13 C4.03 13 1.06 13 -2 13 C-2 12.67 -2 12.34 -2 12 C0.31 12 2.62 12 5 12 C3.02 8.535 3.02 8.535 1 5 C0.01 5.33 -0.98 5.66 -2 6 C-1.125 1.125 -1.125 1.125 0 0 Z " fill="#4E6C7E" transform="translate(305,127)"/>
<path d="M0 0 C1.32 0 2.64 0 4 0 C4.05389087 1.95803507 4.09274217 3.91648909 4.125 5.875 C4.14820313 6.96554688 4.17140625 8.05609375 4.1953125 9.1796875 C4 12 4 12 2 14 C2 13.34 2 12.68 2 12 C1.34 12 0.68 12 0 12 C0.33 14.97 0.66 17.94 1 21 C0.01 21 -0.98 21 -2 21 C-1.86179731 17.6871348 -1.71316222 14.37482011 -1.5625 11.0625 C-1.52318359 10.11697266 -1.48386719 9.17144531 -1.44335938 8.19726562 C-1.40146484 7.29814453 -1.35957031 6.39902344 -1.31640625 5.47265625 C-1.27974854 4.64000244 -1.24309082 3.80734863 -1.20532227 2.94946289 C-1 1 -1 1 0 0 Z " fill="#466981" transform="translate(355,96)"/>
<path d="M0 0 C0.99 0 1.98 0 3 0 C3 13.53 3 27.06 3 41 C2.67 41 2.34 41 2 41 C1.67 29.12 1.34 17.24 1 5 C-1.08231683 7.60289603 -3.15099935 10.22649902 -5 13 C-6 12 -6 12 -6.375 9.6875 C-6 7 -6 7 -3.5625 4.875 C-2.716875 4.25625 -1.87125 3.6375 -1 3 C-0.67 2.01 -0.34 1.02 0 0 Z " fill="#607B8E" transform="translate(261,60)"/>
<path d="M0 0 C0.99 0 1.98 0 3 0 C3 2.31 3 4.62 3 7 C6.63 7 10.26 7 14 7 C14 7.66 14 8.32 14 9 C10.37 9 6.74 9 3 9 C3 11.64 3 14.28 3 17 C2.01 17 1.02 17 0 17 C0 11.39 0 5.78 0 0 Z " fill="#48687B" transform="translate(258,128)"/>
<path d="M0 0 C5.94 0 11.88 0 18 0 C16 2 16 2 12.5234375 2.1953125 C11.14047367 2.18387695 9.75761943 2.15791258 8.375 2.125 C4.724375 2.063125 4.724375 2.063125 1 2 C1 11.57 1 21.14 1 31 C1.99 31.33 2.98 31.66 4 32 C4 32.66 4 33.32 4 34 C2.68 33.67 1.36 33.34 0 33 C0 22.11 0 11.22 0 0 Z " fill="#5C7E93" transform="translate(78,130)"/>
<path d="M0 0 C2.10388569 -0.05402274 4.20816714 -0.09280256 6.3125 -0.125 C8.07013672 -0.15980469 8.07013672 -0.15980469 9.86328125 -0.1953125 C13 0 13 0 16 2 C16.1875 4.625 16.1875 4.625 16 7 C15.01 6.67 14.02 6.34 13 6 C13 5.01 13 4.02 13 3 C9.37 2.67 5.74 2.34 2 2 C2.33 3.98 2.66 5.96 3 8 C2.01 8.66 1.02 9.32 0 10 C0 6.7 0 3.4 0 0 Z " fill="#4D6A7D" transform="translate(185,128)"/>
<path d="M0 0 C5.28 0 10.56 0 16 0 C16 0.99 16 1.98 16 3 C11.71 3 7.42 3 3 3 C3 4.32 3 5.64 3 7 C2.34 7 1.68 7 1 7 C0.67 4.69 0.34 2.38 0 0 Z " fill="#647E90" transform="translate(222,127)"/>
<path d="M0 0 C1.45823212 -0.0270043 2.91660675 -0.04639787 4.375 -0.0625 C5.18710938 -0.07410156 5.99921875 -0.08570313 6.8359375 -0.09765625 C9 0 9 0 11 1 C10.67 2.32 10.34 3.64 10 5 C6.7 5 3.4 5 0 5 C0 3.35 0 1.7 0 0 Z " fill="transparent" transform="translate(187,130)"/>
<path d="M0 0 C0.10845027 3.04263267 0.18752063 6.08136204 0.25 9.125 C0.28351563 9.9809375 0.31703125 10.836875 0.3515625 11.71875 C0.44043755 17.49562845 -0.28042874 20.53358569 -4 25 C-4.66 24.34 -5.32 23.68 -6 23 C-5.34 23 -4.68 23 -4 23 C-4.33 20.03 -4.66 17.06 -5 14 C-4.01 14 -3.02 14 -2 14 C-1.67 10.04 -1.34 6.08 -1 2 C-1.66 1.67 -2.32 1.34 -3 1 C-1 0 -1 0 0 0 Z " fill="#5E7B8F" transform="translate(360,94)"/>
<path d="M0 0 C2.29141286 -0.05384521 4.58318188 -0.09272087 6.875 -0.125 C8.78925781 -0.15980469 8.78925781 -0.15980469 10.7421875 -0.1953125 C14 0 14 0 16 2 C15.625 4.125 15.625 4.125 15 6 C14.61199219 5.51917969 14.22398437 5.03835937 13.82421875 4.54296875 C11.45911353 2.54250502 9.87308547 2.51123932 6.8125 2.3125 C5.91144531 2.24675781 5.01039063 2.18101562 4.08203125 2.11328125 C3.39496094 2.07589844 2.70789063 2.03851563 2 2 C2 3.65 2 5.3 2 7 C1.34 7 0.68 7 0 7 C0 4.69 0 2.38 0 0 Z " fill="#4B687B" transform="translate(337,128)"/>
<path d="M0 0 C0.33 0 0.66 0 1 0 C1 3.63 1 7.26 1 11 C2.32 11.33 3.64 11.66 5 12 C4.67 12.99 4.34 13.98 4 15 C4.99 15.33 5.98 15.66 7 16 C4.03 16.33 1.06 16.66 -2 17 C-1.34 11.39 -0.68 5.78 0 0 Z " fill="#56758A" transform="translate(317,103)"/>
<path d="M0 0 C1.92578125 1.08984375 1.92578125 1.08984375 4.61328125 3.08984375 C3.62328125 3.58484375 3.62328125 3.58484375 2.61328125 4.08984375 C1.37578125 3.37828125 1.37578125 3.37828125 0.11328125 2.65234375 C-4.4947606 0.59518221 -8.42068728 0.82485788 -13.38671875 1.08984375 C-13.71671875 2.07984375 -14.04671875 3.06984375 -14.38671875 4.08984375 C-15.04671875 3.75984375 -15.70671875 3.42984375 -16.38671875 3.08984375 C-17.04671875 3.08984375 -17.70671875 3.08984375 -18.38671875 3.08984375 C-19.04671875 3.08984375 -19.70671875 3.08984375 -20.38671875 3.08984375 C-20.38671875 3.74984375 -20.38671875 4.40984375 -20.38671875 5.08984375 C-21.70671875 4.75984375 -23.02671875 4.42984375 -24.38671875 4.08984375 C-17.10211222 -1.1806726 -8.69915313 -3.317353 0 0 Z " fill="#2AC5BC" transform="translate(106.38671875,41.91015625)"/>
<path d="M0 0 C0.66 3.3 1.32 6.6 2 10 C0.68 10 -0.64 10 -2 10 C-2.103125 9.05125 -2.20625 8.1025 -2.3125 7.125 C-2.68539295 3.70892499 -2.68539295 3.70892499 -6 2 C-7.9896995 1.60986284 -9.99019869 1.26797351 -12 1 C-12 0.67 -12 0.34 -12 0 C-10.56359829 -0.19573608 -9.12580496 -0.38127816 -7.6875 -0.5625 C-6.88699219 -0.66691406 -6.08648437 -0.77132812 -5.26171875 -0.87890625 C-3 -1 -3 -1 0 0 Z " fill="#74899A" transform="translate(200,135)"/>
<path d="M0 0 C2.97 0 5.94 0 9 0 C8.34 0.66 7.68 1.32 7 2 C6.67 2.99 6.34 3.98 6 5 C6.66 5.33 7.32 5.66 8 6 C8.625 8.0625 8.625 8.0625 9 10 C4.71095765 8.4114658 2.67654474 5.56872632 0 2 C0 1.34 0 0.68 0 0 Z " fill="#4E6C80" transform="translate(30,72)"/>
<path d="M0 0 C3.3 0 6.6 0 10 0 C10 1.32 10 2.64 10 4 C6.7 4 3.4 4 0 4 C0 2.68 0 1.36 0 0 Z " fill="transparent" transform="translate(340,138)"/>
<path d="M0 0 C3.3 0 6.6 0 10 0 C9.67 1.32 9.34 2.64 9 4 C6.03 4 3.06 4 0 4 C0 2.68 0 1.36 0 0 Z " fill="transparent" transform="translate(340,131)"/>
<path d="M0 0 C0.99 0 1.98 0 3 0 C4.32 2.64 5.64 5.28 7 8 C6.34 8 5.68 8 5 8 C4.67 8.66 4.34 9.32 4 10 C3.01 8.35 2.02 6.7 1 5 C0.01 5.33 -0.98 5.66 -2 6 C-1.125 1.125 -1.125 1.125 0 0 Z " fill="#5D778A" transform="translate(305,127)"/>
<path d="M0 0 C0.66 0 1.32 0 2 0 C2 0.66 2 1.32 2 2 C2.6084375 2.21527344 3.216875 2.43054688 3.84375 2.65234375 C7.46237092 4.91398183 8.17231064 8.71117189 9.65625 12.56640625 C10.75469342 15.16946679 10.75469342 15.16946679 13.15625 15.83984375 C14.06890625 15.91912109 14.06890625 15.91912109 15 16 C13.35 16.66 11.7 17.32 10 18 C9.52949219 17.11957031 9.05898437 16.23914063 8.57421875 15.33203125 C7.95160156 14.17058594 7.32898438 13.00914062 6.6875 11.8125 C6.07261719 10.66394531 5.45773438 9.51539063 4.82421875 8.33203125 C3.27902659 5.50965671 1.67940334 2.74388669 0 0 Z " fill="#2FC5BB" transform="translate(131,130)"/>
<path d="M0 0 C0 0.66 0 1.32 0 2 C0.99 2.33 1.98 2.66 3 3 C2.67 3.66 2.34 4.32 2 5 C-0.64 4.67 -3.28 4.34 -6 4 C-6.33 2.68 -6.66 1.36 -7 0 C-3.86650268 -1.04449911 -3.01031744 -0.93423645 0 0 Z " fill="#456981" transform="translate(321,86)"/>
<path d="M0 0 C0.66 0 1.32 0 2 0 C0.88971278 3.84330191 0.02168791 6.35602308 -3 9 C-3.66 9.99 -4.32 10.98 -5 12 C-6 11 -6 11 -6.375 8.6875 C-6 6 -6 6 -3.5625 3.8125 C-2.716875 3.214375 -1.87125 2.61625 -1 2 C-0.67 1.34 -0.34 0.68 0 0 Z " fill="#587385" transform="translate(261,61)"/>
<path d="M0 0 C1.67542976 0.28604898 3.34385343 0.61781233 5 1 C4.67 2.32 4.34 3.64 4 5 C2.68 5.33 1.36 5.66 0 6 C-0.38218767 4.34385343 -0.71395102 2.67542976 -1 1 C-0.67 0.67 -0.34 0.34 0 0 Z " fill="#5C7788" transform="translate(218,113)"/>
<path d="M0 0 C0.66 0 1.32 0 2 0 C2.33 0.66 2.66 1.32 3 2 C4.89533342 2.46523063 4.89533342 2.46523063 7.0625 2.625 C8.361875 2.74875 9.66125 2.8725 11 3 C11 3.66 11 4.32 11 5 C7.37 5 3.74 5 0 5 C0 3.35 0 1.7 0 0 Z " fill="#48697D" transform="translate(337,140)"/>
<path d="M0 0 C1.89213369 2.38573379 3.02391783 4.07175348 4 7 C1.69 7 -0.62 7 -3 7 C-1.125 1.125 -1.125 1.125 0 0 Z " fill="transparent" transform="translate(306,131)"/>
<path d="M0 0 C5.09448798 0.43173627 8.84512277 0.75400216 13 4 C13 4.66 13 5.32 13 6 C11.68 6.33 10.36 6.66 9 7 C8.814375 6.38125 8.62875 5.7625 8.4375 5.125 C6.28562767 1.94397134 3.62466237 1.80548053 0 1 C0 0.67 0 0.34 0 0 Z " fill="#4F6C7E" transform="translate(96,72)"/>
<path d="M0 0 C1.32 0 2.64 0 4 0 C4 0.66 4 1.32 4 2 C0.37 3.98 -3.26 5.96 -7 8 C-7 7.01 -7 6.02 -7 5 C-5.35 4.67 -3.7 4.34 -2 4 C-2 3.34 -2 2.68 -2 2 C-1.34 2 -0.68 2 0 2 C0 1.34 0 0.68 0 0 Z " fill="#56798F" transform="translate(113,161)"/>
<path d="M0 0 C0.99 0 1.98 0 3 0 C1.125 3.875 1.125 3.875 0 5 C-1.66617115 5.04063832 -3.33388095 5.042721 -5 5 C-5 3.68 -5 2.36 -5 1 C-4.34 1 -3.68 1 -3 1 C-2.67 1.33 -2.34 1.66 -2 2 C-1.34 1.34 -0.68 0.68 0 0 Z " fill="#47687F" transform="translate(326,113)"/>
<path d="M0 0 C0.33 0 0.66 0 1 0 C1.36923077 5.41538462 1.36923077 5.41538462 -0.5 8.375 C-0.995 8.91125 -1.49 9.4475 -2 10 C-2.66 9.67 -3.32 9.34 -4 9 C-3.67 8.34 -3.34 7.68 -3 7 C-2.64830932 5.67139075 -2.31229724 4.33841672 -2 3 C-1.34 3 -0.68 3 0 3 C0 2.01 0 1.02 0 0 Z M-6 8 C-5.01 8.495 -5.01 8.495 -4 9 C-4.33 9.99 -4.66 10.98 -5 12 C-5.33 10.68 -5.66 9.36 -6 8 Z " fill="#48697F" transform="translate(115,94)"/>
<path d="M0 0 C0.6875 1.8125 0.6875 1.8125 1 4 C-0.4375 5.75 -0.4375 5.75 -2 7 C-3.65 5.35 -5.3 3.7 -7 2 C-6.21625 2.04125 -5.4325 2.0825 -4.625 2.125 C-1.83883881 2.28728734 -1.83883881 2.28728734 0 0 Z " fill="#547389" transform="translate(125,161)"/>
<path d="M0 0 C0.33 0 0.66 0 1 0 C1 4.62 1 9.24 1 14 C-1.475 13.01 -1.475 13.01 -4 12 C-2.68 11.67 -1.36 11.34 0 11 C0 7.37 0 3.74 0 0 Z " fill="#587689" transform="translate(60,138)"/>
<path d="M0 0 C0.33 0.99 0.66 1.98 1 3 C1.66 3.33 2.32 3.66 3 4 C1.35 4.66 -0.3 5.32 -2 6 C-2 5.34 -2 4.68 -2 4 C-4.64 4 -7.28 4 -10 4 C-10 3.67 -10 3.34 -10 3 C-6.7 3 -3.4 3 0 3 C0 2.01 0 1.02 0 0 Z " fill="#6E8996" transform="translate(350,139)"/>
<path d="M0 0 C0 0.99 0 1.98 0 3 C0.99 3.33 1.98 3.66 3 4 C1.576875 4.4640625 1.576875 4.4640625 0.125 4.9375 C-2.86080408 5.87394742 -2.86080408 5.87394742 -5 7 C-5.33 6.01 -5.66 5.02 -6 4 C-2.25 0 -2.25 0 0 0 Z " fill="#52748A" transform="translate(328,109)"/>
<path d="M0 0 C2.31 0.33 4.62 0.66 7 1 C7.33 1.99 7.66 2.98 8 4 C8.99 4.33 9.98 4.66 11 5 C10.01 5.495 10.01 5.495 9 6 C6.8359375 5.00390625 6.8359375 5.00390625 4.375 3.5625 C3.55773437 3.08941406 2.74046875 2.61632812 1.8984375 2.12890625 C1.27195312 1.75636719 0.64546875 1.38382813 0 1 C0 0.67 0 0.34 0 0 Z " fill="#587A90" transform="translate(82,164)"/>
<path d="M0 0 C0.99 0.33 1.98 0.66 3 1 C3.33 2.98 3.66 4.96 4 7 C2.68 7 1.36 7 0 7 C0 4.69 0 2.38 0 0 Z " fill="#516D7E" transform="translate(198,138)"/>
<path d="M0 0 C2.475 0.99 2.475 0.99 5 2 C3.68 2.33 2.36 2.66 1 3 C1 3.99 1 4.98 1 6 C-0.32 5.67 -1.64 5.34 -3 5 C-2.01 3.35 -1.02 1.7 0 0 Z " fill="#577184" transform="translate(297,83)"/>
<path d="M0 0 C1.32 0.66 2.64 1.32 4 2 C3.67 3.32 3.34 4.64 3 6 C1.68 6.33 0.36 6.66 -1 7 C-0.67 4.69 -0.34 2.38 0 0 Z " fill="#527388" transform="translate(185,99)"/>
<path d="M0 0 C0.99 0 1.98 0 3 0 C3 1.32 3 2.64 3 4 C1.68 4.33 0.36 4.66 -1 5 C-1.33 4.01 -1.66 3.02 -2 2 C-1.34 1.34 -0.68 0.68 0 0 Z " fill="#446882" transform="translate(328,95)"/>
<path d="M0 0 C0.33 0 0.66 0 1 0 C1 3.63 1 7.26 1 11 C0.01 10.01 -0.98 9.02 -2 8 C-1.79846293 5.15124622 -0.85624823 2.74900747 0 0 Z " fill="#4B697A" transform="translate(126,159)"/>
</svg>
