<svg width="284" height="614" viewBox="0 0 284 614" fill="none" xmlns="http://www.w3.org/2000/svg">
<rect width="283.559" height="614" rx="30.2463" fill="#F2F0F0"/>
<rect x="0.378079" y="0.378079" width="282.803" height="613.244" rx="29.8682" stroke="#D1D1D1" stroke-opacity="0.85" stroke-width="0.756158"/>
<g clip-path="url(#clip0_35_599)">
<path d="M139.138 350.656C137.225 350.531 135.33 350.281 133.465 349.91L133.367 350.4C131.469 350.022 129.601 349.521 127.776 348.902L127.937 348.428C126.129 347.814 124.363 347.083 122.65 346.238L122.429 346.687C120.7 345.834 119.025 344.868 117.416 343.793L117.694 343.377C116.113 342.321 114.596 341.158 113.154 339.893L112.824 340.269C112.1 339.634 111.395 338.974 110.711 338.289C110.026 337.605 109.366 336.9 108.731 336.176L109.107 335.846C107.842 334.404 106.679 332.887 105.623 331.306L105.207 331.584C104.132 329.975 103.166 328.3 102.313 326.571L102.762 326.35C101.917 324.637 101.186 322.871 100.572 321.063L100.098 321.224C99.4787 319.399 98.9777 317.531 98.6001 315.633L99.0905 315.535C98.7195 313.67 98.469 311.775 98.3436 309.862L97.8447 309.894C97.7818 308.934 97.75 307.969 97.75 307C97.75 306.031 97.7818 305.066 97.8447 304.106L98.3436 304.138C98.469 302.225 98.7195 300.33 99.0905 298.465L98.6001 298.367C98.9777 296.469 99.4787 294.601 100.098 292.776L100.572 292.937C101.186 291.129 101.917 289.363 102.762 287.65L102.313 287.429C103.166 285.7 104.132 284.025 105.207 282.416L105.623 282.694C106.679 281.113 107.842 279.596 109.107 278.154L108.731 277.824C109.366 277.1 110.026 276.395 110.711 275.711C111.395 275.026 112.1 274.366 112.824 273.731L113.154 274.107C114.596 272.842 116.113 271.679 117.694 270.623L117.416 270.207C119.025 269.132 120.7 268.166 122.429 267.313L122.65 267.762C124.363 266.917 126.129 266.186 127.937 265.572L127.776 265.098C129.601 264.479 131.469 263.978 133.367 263.6L133.465 264.09C135.33 263.719 137.225 263.469 139.138 263.344L139.106 262.845C140.066 262.782 141.031 262.75 142 262.75C142.969 262.75 143.934 262.782 144.894 262.845L144.862 263.344C146.775 263.469 148.67 263.719 150.535 264.09L150.633 263.6C152.531 263.978 154.399 264.479 156.224 265.098L156.063 265.572C157.871 266.186 159.637 266.917 161.35 267.762L161.571 267.313C163.3 268.166 164.975 269.132 166.584 270.207L166.306 270.623C167.887 271.679 169.404 272.842 170.846 274.107L171.176 273.731C171.9 274.366 172.605 275.026 173.289 275.711C173.974 276.395 174.634 277.1 175.269 277.824L174.893 278.154C176.158 279.596 177.321 281.113 178.377 282.694L178.793 282.416C179.868 284.025 180.834 285.7 181.687 287.429L181.238 287.65C182.083 289.363 182.814 291.129 183.428 292.937L183.902 292.776C184.521 294.601 185.022 296.469 185.4 298.367L184.91 298.465C185.281 300.33 185.531 302.225 185.656 304.138L186.155 304.106C186.218 305.066 186.25 306.031 186.25 307C186.25 307.969 186.218 308.934 186.155 309.894L185.656 309.862C185.531 311.775 185.281 313.67 184.91 315.535L185.4 315.633C185.022 317.531 184.521 319.399 183.902 321.224L183.428 321.063C182.814 322.871 182.083 324.637 181.238 326.35L181.687 326.571C180.834 328.3 179.868 329.975 178.793 331.584L178.377 331.306C177.321 332.887 176.158 334.404 174.893 335.846L175.269 336.176C174.634 336.9 173.974 337.605 173.289 338.289C172.605 338.974 171.9 339.634 171.176 340.269L170.846 339.893C169.404 341.158 167.887 342.321 166.306 343.377L166.584 343.793C164.975 344.868 163.3 345.834 161.571 346.687L161.35 346.238C159.637 347.083 157.871 347.814 156.063 348.428L156.224 348.902C154.399 349.521 152.531 350.022 150.633 350.4L150.535 349.91C148.67 350.281 146.775 350.531 144.862 350.656L144.894 351.155C143.934 351.218 142.969 351.25 142 351.25C141.031 351.25 140.066 351.218 139.106 351.155L139.138 350.656ZM142 356.5C140.917 356.5 139.837 356.464 138.762 356.394L138.73 356.893C136.542 356.75 134.377 356.463 132.245 356.039L132.343 355.549C130.22 355.127 128.13 354.566 126.089 353.873L125.928 354.347C123.861 353.645 121.843 352.809 119.886 351.844L120.107 351.395C118.173 350.442 116.299 349.361 114.499 348.158L114.221 348.574C112.414 347.366 110.681 346.037 109.033 344.592L109.363 344.216C108.553 343.506 107.764 342.768 106.998 342.002C106.232 341.236 105.494 340.447 104.784 339.637L104.408 339.967C102.963 338.319 101.634 336.586 100.426 334.779L100.842 334.501C99.6393 332.701 98.5584 330.827 97.6048 328.893L97.1563 329.114C96.1911 327.157 95.355 325.139 94.6535 323.072L95.1269 322.911C94.4338 320.87 93.8733 318.78 93.4509 316.657L92.9605 316.755C92.5366 314.623 92.2503 312.458 92.107 310.27L92.6059 310.238C92.5355 309.163 92.5 308.083 92.5 307C92.5 305.917 92.5355 304.837 92.6059 303.762L92.107 303.73C92.2503 301.542 92.5366 299.377 92.9605 297.245L93.4509 297.343C93.8733 295.22 94.4338 293.13 95.1269 291.089L94.6535 290.928C95.355 288.861 96.1911 286.843 97.1563 284.886L97.6048 285.107C98.5584 283.173 99.6393 281.299 100.842 279.499L100.426 279.221C101.634 277.414 102.963 275.681 104.408 274.033L104.784 274.363C105.494 273.553 106.232 272.764 106.998 271.998C107.764 271.232 108.553 270.494 109.363 269.784L109.033 269.408C110.681 267.963 112.414 266.634 114.221 265.426L114.499 265.842C116.299 264.639 118.173 263.558 120.107 262.605L119.886 262.156C121.843 261.191 123.861 260.355 125.928 259.653L126.089 260.127C128.13 259.434 130.22 258.873 132.343 258.451L132.245 257.961C134.377 257.537 136.542 257.25 138.73 257.107L138.762 257.606C139.837 257.536 140.917 257.5 142 257.5C143.083 257.5 144.163 257.536 145.238 257.606L145.27 257.107C147.458 257.25 149.623 257.537 151.755 257.961L151.657 258.451C153.78 258.873 155.87 259.434 157.911 260.127L158.072 259.653C160.139 260.355 162.157 261.191 164.114 262.156L163.893 262.605C165.827 263.558 167.701 264.639 169.501 265.842L169.779 265.426C171.586 266.634 173.319 267.963 174.967 269.408L174.637 269.784C175.447 270.494 176.236 271.232 177.002 271.998C177.768 272.764 178.506 273.553 179.216 274.363L179.592 274.033C181.037 275.681 182.366 277.414 183.574 279.221L183.158 279.499C184.361 281.299 185.442 283.173 186.395 285.107L186.844 284.886C187.809 286.843 188.645 288.861 189.347 290.928L188.873 291.089C189.566 293.13 190.127 295.22 190.549 297.343L191.039 297.245C191.463 299.377 191.75 301.542 191.893 303.73L191.394 303.762C191.464 304.837 191.5 305.917 191.5 307C191.5 308.083 191.464 309.163 191.394 310.238L191.893 310.27C191.75 312.458 191.463 314.623 191.039 316.755L190.549 316.657C190.127 318.78 189.566 320.87 188.873 322.911L189.347 323.072C188.645 325.139 187.809 327.157 186.844 329.114L186.395 328.893C185.442 330.827 184.361 332.701 183.158 334.501L183.574 334.779C182.366 336.586 181.037 338.319 179.592 339.967L179.216 339.637C178.506 340.447 177.768 341.236 177.002 342.002C176.236 342.768 175.447 343.506 174.637 344.216L174.967 344.592C173.319 346.037 171.586 347.366 169.779 348.574L169.501 348.158C167.701 349.361 165.827 350.442 163.893 351.395L164.114 351.844C162.157 352.809 160.139 353.645 158.072 354.347L157.911 353.873C155.87 354.566 153.78 355.127 151.657 355.549L151.755 356.039C149.623 356.463 147.458 356.75 145.27 356.893L145.238 356.394C144.163 356.464 143.083 356.5 142 356.5Z" stroke="#E7D9D9" stroke-dasharray="6 6"/>
<path d="M142 289.5C142.58 289.5 143.137 289.73 143.547 290.141C143.957 290.551 144.188 291.107 144.188 291.688V304.812H157.312C157.893 304.812 158.449 305.043 158.859 305.453C159.27 305.863 159.5 306.42 159.5 307C159.5 307.58 159.27 308.137 158.859 308.547C158.449 308.957 157.893 309.188 157.312 309.188H144.188V322.312C144.188 322.893 143.957 323.449 143.547 323.859C143.137 324.27 142.58 324.5 142 324.5C141.42 324.5 140.863 324.27 140.453 323.859C140.043 323.449 139.812 322.893 139.812 322.312V309.188H126.688C126.107 309.188 125.551 308.957 125.141 308.547C124.73 308.137 124.5 307.58 124.5 307C124.5 306.42 124.73 305.863 125.141 305.453C125.551 305.043 126.107 304.812 126.688 304.812H139.812V291.688C139.812 291.107 140.043 290.551 140.453 290.141C140.863 289.73 141.42 289.5 142 289.5Z" fill="#E0E0E0"/>
</g>
<defs>
<clipPath id="clip0_35_599">
<rect width="100" height="100" fill="white" transform="translate(92 257)"/>
</clipPath>
</defs>
</svg>
